<svg width="39" height="39" viewBox="0 0 39 39" fill="none" xmlns="http://www.w3.org/2000/svg">
<path d="M1 1L6.13889 1L7.16667 5.11111M7.16667 5.11111L11.2778 21.5556M7.16667 5.11111H38L33.8889 21.5556H11.2778M11.2778 21.5556H10.25C8.54712 21.5556 7.16667 22.936 7.16667 24.6389C7.16667 26.3418 8.54712 27.7222 10.25 27.7222H33.8889M33.8889 35.9444C33.8889 37.0797 32.9686 38 31.8333 38C30.6981 38 29.7778 37.0797 29.7778 35.9444C29.7778 34.8092 30.6981 33.8889 31.8333 33.8889C32.9686 33.8889 33.8889 34.8092 33.8889 35.9444ZM13.3333 35.9444C13.3333 37.0797 12.413 38 11.2778 38C10.1425 38 9.22222 37.0797 9.22222 35.9444C9.22222 34.8092 10.1425 33.8889 11.2778 33.8889C12.413 33.8889 13.3333 34.8092 13.3333 35.9444Z" stroke="black" stroke-linecap="round"/>
</svg>
