<svg width="36" height="36" viewBox="0 0 36 36" fill="none" xmlns="http://www.w3.org/2000/svg">
<g clip-path="url(#clip0_172_933)">
<path d="M25.875 0H10.125C4.5 0 0 4.5 0 10.125V16.875V25.875C0 31.5 4.5 36 10.125 36H25.875C31.5 36 36 31.5 36 25.875V16.875V10.125C36 4.5 31.5 0 25.875 0ZM18 11.25C21.7125 11.25 24.75 14.2875 24.75 18C24.75 21.7125 21.7125 24.75 18 24.75C14.2875 24.75 11.25 21.7125 11.25 18C11.25 14.2875 14.2875 11.25 18 11.25ZM24.75 7.875C24.75 6.6375 25.7625 5.625 27 5.625C28.2375 5.625 29.25 6.6375 29.25 7.875C29.25 9.1125 28.2375 10.125 27 10.125C25.7625 10.125 24.75 9.1125 24.75 7.875Z" fill="black"/>
</g>
<defs>
<clipPath id="clip0_172_933">
<rect width="36" height="36" fill="white"/>
</clipPath>
</defs>
</svg>
