<svg width="36" height="32" viewBox="0 0 36 32" fill="none" xmlns="http://www.w3.org/2000/svg">
<path d="M11.8126 31.425C7.8751 31.425 3.9376 30.3 0.562598 28.05C0.112598 27.7125 9.79677e-05 27.2625 0.112598 26.7C0.337598 26.25 0.787598 25.9125 1.3501 25.9125C3.9376 26.25 6.4126 25.8 8.5501 24.675C6.4126 23.775 4.6126 21.975 3.9376 19.6125C3.8251 19.275 3.9376 18.825 4.1626 18.4875L4.2751 18.375C2.5876 16.8 1.4626 14.55 1.4626 12.1875C1.4626 11.7375 1.6876 11.4 2.0251 11.175C2.1376 11.0625 2.3626 11.0625 2.4751 11.0625C1.8001 9.825 1.4626 8.475 1.4626 7.125C1.4626 5.6625 1.8001 4.2 2.5876 2.9625C2.7001 2.625 3.0376 2.4 3.4876 2.4C3.8251 2.4 4.2751 2.5125 4.5001 2.85C7.0876 6.1125 10.6876 8.475 14.7376 9.375C14.7376 4.425 18.7876 0.375 23.7376 0.375C26.2126 0.375 28.5751 1.3875 30.2626 3.1875C31.3876 2.85 32.2876 2.2875 33.3001 1.725C33.7501 1.5 34.3126 1.5 34.6501 1.8375C34.8751 2.175 34.9876 2.625 34.7626 3.075L33.0751 6.45L35.2126 7.125C35.6626 7.35 36.0001 7.6875 36.0001 8.1375C36.0001 8.5875 35.8876 9.0375 35.4376 9.2625L32.5126 10.95C32.1751 21.075 24.4126 31.425 11.8126 31.425Z" fill="black"/>
</svg>
